<svg id="gl-warning" xmlns="http://www.w3.org/2000/svg" width="30" height="30" viewBox="0 0 30 30">
  <rect id="Rectangle_5060" data-name="Rectangle 5060" width="30" height="30" fill="none"/>
  <path id="Union_24" data-name="Union 24" d="M17315.252,21121.1a4.188,4.188,0,0,1-3.691-6.254l10.748-18.725a4.277,4.277,0,0,1,7.383,0l10.754,18.725a4.192,4.192,0,0,1-3.691,6.254Zm9.031-23.857-10.75,18.725a1.881,1.881,0,0,0,0,1.9,1.954,1.954,0,0,0,1.715.969h21.5a1.942,1.942,0,0,0,1.709-.969,1.862,1.862,0,0,0,0-1.9l-10.746-18.725a2,2,0,0,0-3.437,0Zm-.105,17.531a1.819,1.819,0,1,1,1.822,1.809A1.813,1.813,0,0,1,17324.178,21114.771Zm.457-4.965v-7.227a1.364,1.364,0,0,1,2.729,0v7.227a1.364,1.364,0,0,1-2.729,0Z" transform="translate(-17311 -21092.551)" fill="#fc3f72"/>
</svg>
