<svg id="icon-checkin" xmlns="http://www.w3.org/2000/svg" width="20" height="20" viewBox="0 0 20 20">
  <rect id="Rectangle_4880" data-name="Rectangle 4880" width="20" height="20" fill="none"/>
  <g id="Group_1862" data-name="Group 1862" transform="translate(6.568 3.594)">
    <g id="Group_1861" data-name="Group 1861">
      <path id="Path_37" data-name="Path 37" d="M178.164,92a3.164,3.164,0,1,0,3.164,3.164A3.168,3.168,0,0,0,178.164,92Zm0,4.766a1.6,1.6,0,1,1,1.6-1.6A1.6,1.6,0,0,1,178.164,96.766Z" transform="translate(-175 -92)" fill="#09f"/>
    </g>
  </g>
  <g id="Group_1864" data-name="Group 1864" transform="translate(1.333)">
    <g id="Group_1863" data-name="Group 1863">
      <path id="Path_38" data-name="Path 38" d="M52.277,14.413c.229-.244.464-.5.7-.775,2.109-2.435,3.179-4.623,3.179-6.5V6.758a6.758,6.758,0,1,0-13.516,0v.377c0,1.88,1.07,4.067,3.179,6.5.236.272.471.531.7.775-2.185.239-5.52.9-5.52,2.718,0,.969.944,1.72,2.806,2.23A22.087,22.087,0,0,0,49.4,20a22.087,22.087,0,0,0,5.593-.639c1.862-.51,2.806-1.261,2.806-2.23C57.8,15.315,54.475,14.652,52.277,14.413ZM44.2,7.135V6.758a5.2,5.2,0,1,1,10.391,0v.377c0,1.468-.962,3.356-2.782,5.462A27.111,27.111,0,0,1,49.4,15.036,27.064,27.064,0,0,1,47,12.614C45.171,10.5,44.2,8.607,44.2,7.135ZM54.239,17.941a21.564,21.564,0,0,1-4.841.5,21.564,21.564,0,0,1-4.841-.5,4.268,4.268,0,0,1-1.953-.81,3.551,3.551,0,0,1,1.49-.688,18.2,18.2,0,0,1,3.886-.581c.534.492.894.787.924.812l.493.4.493-.4c.03-.025.39-.319.924-.812a18.243,18.243,0,0,1,3.875.578,3.57,3.57,0,0,1,1.5.692A4.269,4.269,0,0,1,54.239,17.941Z" transform="translate(-41)" fill="#09f"/>
    </g>
  </g>
</svg>
